<?xml version="1.0" encoding="UTF-8"?>
<svg width="200" height="200" viewBox="0 0 200 200" fill="none" xmlns="http://www.w3.org/2000/svg">
    <rect width="200" height="200" rx="100" fill="#1a1a1a"/>
    <path d="M100 50C83.458 50 70 63.458 70 80C70 96.542 83.458 110 100 110C116.542 110 130 96.542 130 80C130 63.458 116.542 50 100 50ZM100 100C91.7157 100 85 93.2843 85 85C85 76.7157 91.7157 70 100 70C108.284 70 115 76.7157 115 85C115 93.2843 108.284 100 100 100Z" fill="#4a4a4a"/>
    <path d="M100 115C75.1472 115 55 135.147 55 160H145C145 135.147 124.853 115 100 115Z" fill="#4a4a4a"/>
</svg>
